<svg xmlns="http://www.w3.org/2000/svg" width="529.604" height="696.659" viewBox="0 0 529.604 696.659">
  <g id="Group_19" data-name="Group 19" transform="translate(-808.349 -48.863)">
    <g id="Group_8" data-name="Group 8" transform="translate(488 -90)">
      <g id="Path_1" data-name="Path 1" transform="translate(472.57 401.908)" fill="#fff">
        <path d="M -29.45925140380859 69.16637420654297 L -15.37700939178467 19.03232002258301 L -14.93858623504639 17.47147369384766 L -15.1839714050293 15.86893653869629 C -15.65312480926514 12.80505180358887 -27.2177791595459 -59.19910049438477 -74.51943206787109 -61.90137100219727 C -89.34346771240234 -62.88294982910156 -99.04754638671875 -66.97637176513672 -101.7764739990234 -73.42340850830078 C -104.8733139038086 -80.73967742919922 -99.69374084472656 -93.12933349609375 -87.56581878662109 -107.4156036376953 C -77.15869903564453 -119.1329498291016 -61.21893310546875 -127.4045639038086 -48.91262435913086 -127.4045639038086 C -43.53670120239258 -127.4045639038086 -39.27724075317383 -125.8640289306641 -36.25247192382812 -122.8257598876953 C -32.18354797363281 -118.7386016845703 -30.05516242980957 -111.5708312988281 -30.09747123718262 -102.097297668457 C -30.33166313171387 -49.64460372924805 32.52833557128906 -31.79425621032715 35.20437622070312 -31.06002616882324 L 37.05918121337891 -30.5511417388916 L 38.93003082275391 -30.99767875671387 L 80.66706085205078 -40.95990753173828 L -29.45925140380859 69.16637420654297 Z" stroke="none"/>
        <path d="M -48.91189575195312 -119.9045333862305 C -59.07085037231445 -119.9040374755859 -73.01461791992188 -112.5043487548828 -81.84821319580078 -102.5618591308594 C -94.578125 -87.56644439697266 -95.93225860595703 -78.85712432861328 -94.86975860595703 -76.34694671630859 C -94.02898406982422 -74.36067199707031 -88.57611846923828 -70.34857940673828 -74.09166717529297 -69.38917541503906 C -20.79275703430176 -66.34430694580078 -8.27707576751709 11.42464447021484 -7.770394325256348 14.73377990722656 L -7.279621124267578 17.93887329101562 L -8.156439781188965 21.06050872802734 L -14.48295593261719 43.58352661132812 L 56.60686492919922 -27.50629806518555 L 40.67128753662109 -23.70262718200684 L 36.92960739135742 -22.80953598022461 L 33.21992492675781 -23.82735443115234 C 30.31764984130859 -24.62362670898438 -37.85698699951172 -43.99753570556641 -37.59743881225586 -102.1307678222656 C -37.56471252441406 -109.4596710205078 -38.97475814819336 -114.9302673339844 -41.56789398193359 -117.5348510742188 C -42.15148544311523 -118.1210327148438 -43.92739486694336 -119.9048080444336 -48.91184997558594 -119.9045333862305 L -48.91189575195312 -119.9045333862305 M -48.91261291503906 -134.9045562744141 C -34.20652389526367 -134.9053039550781 -22.49210739135742 -125.6812057495117 -22.59757614135742 -102.0638122558594 C -22.80880355834961 -54.75394439697266 37.18874359130859 -38.29276275634766 37.18874359130859 -38.29276275634766 L 104.7273330688477 -54.41358184814453 L -44.43548583984375 94.74923706054688 L -22.59757614135742 17.00414276123047 C -22.59757614135742 17.00414276123047 -33.16780090332031 -52.02680969238281 -74.94721221923828 -54.41358184814453 C -112.2039413452148 -56.87976455688477 -122.4601211547852 -77.90021514892578 -93.28339385986328 -112.2693939208984 C -81.42900085449219 -125.6194610595703 -63.66544723510742 -134.90380859375 -48.91261291503906 -134.9045562744141 Z" stroke="none" fill="#707070"/>
      </g>
      <g id="Group_3" data-name="Group 3" transform="translate(320.35 231.365)">
        <g id="Path_2" data-name="Path 2" transform="translate(152.221 170.543)" fill="#fff">
          <path d="M -29.45925140380859 69.16637420654297 L -15.37700939178467 19.03232002258301 L -14.93858623504639 17.47147369384766 L -15.1839714050293 15.86893653869629 C -15.65312480926514 12.80505180358887 -27.2177791595459 -59.19910049438477 -74.51943206787109 -61.90137100219727 C -89.34346771240234 -62.88294982910156 -99.04754638671875 -66.97637176513672 -101.7764739990234 -73.42340850830078 C -104.8733139038086 -80.73967742919922 -99.69374084472656 -93.12933349609375 -87.56581878662109 -107.4156036376953 C -77.15869903564453 -119.1329498291016 -61.21893310546875 -127.4045639038086 -48.91262435913086 -127.4045639038086 C -43.53670120239258 -127.4045639038086 -39.27724075317383 -125.8640289306641 -36.25247192382812 -122.8257598876953 C -32.18354797363281 -118.7386016845703 -30.05516242980957 -111.5708312988281 -30.09747123718262 -102.097297668457 C -30.33166313171387 -49.64460372924805 32.52833557128906 -31.79425621032715 35.20437622070312 -31.06002616882324 L 37.05918121337891 -30.5511417388916 L 38.93003082275391 -30.99767875671387 L 80.66706085205078 -40.95990753173828 L -29.45925140380859 69.16637420654297 Z" stroke="none"/>
          <path d="M -48.91189575195312 -119.9045333862305 C -59.07085037231445 -119.9040374755859 -73.01461791992188 -112.5043487548828 -81.84821319580078 -102.5618591308594 C -94.578125 -87.56644439697266 -95.93225860595703 -78.85712432861328 -94.86975860595703 -76.34694671630859 C -94.02898406982422 -74.36067199707031 -88.57611846923828 -70.34857940673828 -74.09166717529297 -69.38917541503906 C -20.79275703430176 -66.34430694580078 -8.27707576751709 11.42464447021484 -7.770394325256348 14.73377990722656 L -7.279621124267578 17.93887329101562 L -8.156439781188965 21.06050872802734 L -14.48295593261719 43.58352661132812 L 56.60686492919922 -27.50629806518555 L 40.67128753662109 -23.70262718200684 L 36.92960739135742 -22.80953598022461 L 33.21992492675781 -23.82735443115234 C 30.31764984130859 -24.62362670898438 -37.85698699951172 -43.99753570556641 -37.59743881225586 -102.1307678222656 C -37.56471252441406 -109.4596710205078 -38.97475814819336 -114.9302673339844 -41.56789398193359 -117.5348510742188 C -42.15148544311523 -118.1210327148438 -43.92739486694336 -119.9048080444336 -48.91184997558594 -119.9045333862305 L -48.91189575195312 -119.9045333862305 M -48.91261291503906 -134.9045562744141 C -34.20652389526367 -134.9053039550781 -22.49210739135742 -125.6812057495117 -22.59757614135742 -102.0638122558594 C -22.80880355834961 -54.75394439697266 37.18874359130859 -38.29276275634766 37.18874359130859 -38.29276275634766 L 104.7273330688477 -54.41358184814453 L -44.43548583984375 94.74923706054688 L -22.59757614135742 17.00414276123047 C -22.59757614135742 17.00414276123047 -33.16780090332031 -52.02680969238281 -74.94721221923828 -54.41358184814453 C -112.2039413452148 -56.87976455688477 -122.4601211547852 -77.90021514892578 -93.28339385986328 -112.2693939208984 C -81.42900085449219 -125.6194610595703 -63.66544723510742 -134.90380859375 -48.91261291503906 -134.9045562744141 Z" stroke="none" fill="#cb5078"/>
        </g>
        <g id="Path_3" data-name="Path 3" transform="translate(333.644 0) rotate(60)" fill="#fff">
          <path d="M 80.70722961425781 204.0709381103516 L 94.78947448730469 153.9368896484375 L 95.22789764404297 152.3760375976562 L 94.98251342773438 150.7734985351562 C 94.51335906982422 147.7096099853516 82.94869995117188 75.70545959472656 35.64704895019531 73.00318908691406 C 20.8230094909668 72.02161407470703 11.11893272399902 67.92819213867188 8.390009880065918 61.48115539550781 C 5.29320240020752 54.16492462158203 10.47277927398682 41.77523040771484 22.6007022857666 27.48896217346191 C 33.00777816772461 15.77161502838135 48.94754791259766 7.5 61.2538948059082 7.5 C 66.62977600097656 7.5 70.8892822265625 9.040538787841797 73.91400909423828 12.07880783081055 C 77.98293304443359 16.16596221923828 80.11132049560547 23.33373069763184 80.06900787353516 32.80727005004883 C 79.83481597900391 85.25996398925781 142.69482421875 103.1103057861328 145.370849609375 103.8445358276367 L 147.2256622314453 104.3534240722656 L 149.0965118408203 103.9068832397461 L 190.8335418701172 93.94465637207031 L 80.70722961425781 204.0709381103516 Z" stroke="none"/>
          <path d="M 61.25459289550781 15.00003051757812 C 51.09562683105469 15.00053405761719 37.15185546875 22.40020751953125 28.31826782226562 32.34271240234375 C 15.58836364746094 47.33811950683594 14.23422241210938 56.04743957519531 15.29672241210938 58.5576171875 C 16.13749694824219 60.54388427734375 21.59036254882812 64.55598449707031 36.07481384277344 65.51539611816406 C 89.37372589111328 68.56025695800781 101.8894500732422 146.3292083740234 102.3961334228516 149.6383056640625 L 102.8869018554688 152.8434448242188 L 102.0100402832031 155.9651184082031 L 95.68351745605469 178.4880676269531 L 166.7733306884766 107.3982696533203 L 150.8377685546875 111.2019348144531 L 147.0960845947266 112.0950317382812 L 143.3864135742188 111.0772094726562 C 140.484130859375 110.2809371948242 72.30949401855469 90.90702819824219 72.569091796875 32.7738037109375 C 72.601806640625 25.44488525390625 71.1917724609375 19.97430419921875 68.5986328125 17.36970520019531 C 68.01504516601562 16.7835693359375 66.2391357421875 14.999755859375 61.254638671875 15.00003051757812 L 61.25459289550781 15.00003051757812 M 61.25387573242188 0 C 75.95996856689453 -0.0007476806640625 87.67440032958984 9.223358154296875 87.56894683837891 32.84075927734375 C 87.35768127441406 80.15061950683594 147.355224609375 96.61180114746094 147.355224609375 96.61180114746094 L 214.8938140869141 80.49098205566406 L 65.73095703125 229.65380859375 L 87.56894683837891 151.9087066650391 C 87.56894683837891 151.9087066650391 76.99868011474609 82.87776184082031 35.21926879882812 80.49098205566406 C -2.037460327148438 78.02479553222656 -12.29364013671875 57.00434875488281 16.88308715820312 22.63516235351562 C 28.73748779296875 9.285110473632812 46.50103759765625 0.000762939453125 61.25387573242188 0 Z" stroke="none" fill="#cb5078"/>
        </g>
        <g id="Path_7" data-name="Path 7" transform="matrix(0.94, -0.342, 0.342, 0.94, 68.926, 317.973)" fill="#fff">
          <path d="M 61.25385665893555 222.1538696289062 C 48.94754791259766 222.1538696289062 33.00777816772461 213.8822479248047 22.49124145507812 202.038818359375 C 10.47274112701416 187.8785858154297 5.293163776397705 175.4889373779297 8.390009880065918 168.1726684570312 C 11.11893272399902 161.7256317138672 20.8230094909668 157.6322021484375 35.71466445922852 156.6464385986328 C 82.94869995117188 153.9483642578125 94.51335906982422 81.94420623779297 94.98251342773438 78.88032531738281 L 95.22789764404297 77.27778625488281 L 94.78947448730469 75.71694183349609 L 80.70722961425781 25.5828914642334 L 190.8335266113281 135.7091827392578 L 149.0965118408203 125.746940612793 L 147.2256622314453 125.3003997802734 L 145.370849609375 125.8092880249023 C 142.6947784423828 126.5435180664062 79.83481597900391 144.3939056396484 80.06900787353516 196.8465576171875 C 80.11132049560547 206.3200988769531 77.98293304443359 213.4878997802734 73.91397094726562 217.5750579833984 C 70.88924407958984 220.6133270263672 66.62977600097656 222.1538696289062 61.25385665893555 222.1538696289062 Z" stroke="none"/>
          <path d="M 61.25386047363281 214.6538391113281 C 66.23918151855469 214.6538391113281 68.01522064208984 212.8698425292969 68.59886169433594 212.2836151123047 C 71.19181060791016 209.6790161132812 72.60176849365234 204.2086181640625 72.56903839111328 196.8800201416016 C 72.30949401855469 138.7467956542969 140.484130859375 119.3728866577148 143.3863983154297 118.5766143798828 L 147.0960845947266 117.5587921142578 L 150.8377685546875 118.4518890380859 L 166.7733459472656 122.2555541992188 L 95.68352508544922 51.16573333740234 L 102.0100402832031 73.68875122070312 L 102.8868560791016 76.81038665771484 L 102.3960876464844 80.01548004150391 C 101.889404296875 83.32461547851562 89.37372589111328 161.0935668945312 36.20999526977539 164.1300659179688 C 21.59036064147949 165.0978393554688 16.13749694824219 169.1099395751953 15.29672336578369 171.0962066650391 C 14.23422336578369 173.6063842773438 15.58835983276367 182.3157043457031 28.0993595123291 197.0589752197266 C 37.15231323242188 207.2541656494141 51.09576797485352 214.6538391113281 61.25386047363281 214.6538391113281 M 61.25386810302734 229.6538543701172 C 46.50103378295898 229.6538543701172 28.73748207092285 220.3687438964844 16.88308715820312 207.0186614990234 C -12.29364013671875 172.6494750976562 -2.037458419799805 151.6290283203125 35.21926879882812 149.162841796875 C 76.99868011474609 146.7760620117188 87.56890869140625 77.7451171875 87.56890869140625 77.7451171875 L 65.73099517822266 2.311567914148327e-05 L 214.8938140869141 149.162841796875 L 147.355224609375 133.0420227050781 C 147.355224609375 133.0420227050781 87.35768127441406 149.5032043457031 87.56890869140625 196.8130645751953 C 87.67437744140625 220.4304809570312 75.9599609375 229.6538543701172 61.25386810302734 229.6538543701172 Z" stroke="none" fill="#cb5078"/>
        </g>
        <g id="Path_4" data-name="Path 4" transform="matrix(-0.407, 0.914, -0.914, -0.407, 529.604, 156.29)" fill="#fff">
          <path d="M 80.70722961425781 204.0709381103516 L 94.78947448730469 153.9368896484375 L 95.22789764404297 152.3760375976562 L 94.98251342773438 150.7734985351562 C 94.51335906982422 147.7096099853516 82.94869995117188 75.70545959472656 35.64704895019531 73.00318908691406 C 20.8230094909668 72.02161407470703 11.11893272399902 67.92819213867188 8.390009880065918 61.48115539550781 C 5.29320240020752 54.16492462158203 10.47277927398682 41.77523040771484 22.6007022857666 27.48896217346191 C 33.00777816772461 15.77161502838135 48.94754791259766 7.5 61.2538948059082 7.5 C 66.62977600097656 7.5 70.8892822265625 9.040538787841797 73.91400909423828 12.07880783081055 C 77.98293304443359 16.16596221923828 80.11132049560547 23.33373069763184 80.06900787353516 32.80727005004883 C 79.83481597900391 85.25996398925781 142.69482421875 103.1103057861328 145.370849609375 103.8445358276367 L 147.2256622314453 104.3534240722656 L 149.0965118408203 103.9068832397461 L 190.8335418701172 93.94465637207031 L 80.70722961425781 204.0709381103516 Z" stroke="none"/>
          <path d="M 61.25459289550781 15.00003051757812 C 51.09562683105469 15.00053405761719 37.15185546875 22.40020751953125 28.31826782226562 32.34271240234375 C 15.58836364746094 47.33811950683594 14.23422241210938 56.04743957519531 15.29672241210938 58.5576171875 C 16.13749694824219 60.54388427734375 21.59036254882812 64.55598449707031 36.07481384277344 65.51539611816406 C 89.37372589111328 68.56025695800781 101.8894500732422 146.3292083740234 102.3961334228516 149.6383056640625 L 102.8869018554688 152.8434448242188 L 102.0100402832031 155.9651184082031 L 95.68351745605469 178.4880676269531 L 166.7733306884766 107.3982696533203 L 150.8377685546875 111.2019348144531 L 147.0960845947266 112.0950317382812 L 143.3864135742188 111.0772094726562 C 140.484130859375 110.2809371948242 72.30949401855469 90.90702819824219 72.569091796875 32.7738037109375 C 72.601806640625 25.44488525390625 71.1917724609375 19.97430419921875 68.5986328125 17.36970520019531 C 68.01504516601562 16.7835693359375 66.2391357421875 14.999755859375 61.254638671875 15.00003051757812 L 61.25459289550781 15.00003051757812 M 61.25387573242188 0 C 75.95996856689453 -0.0007476806640625 87.67440032958984 9.223358154296875 87.56894683837891 32.84075927734375 C 87.35768127441406 80.15061950683594 147.355224609375 96.61180114746094 147.355224609375 96.61180114746094 L 214.8938140869141 80.49098205566406 L 65.73095703125 229.65380859375 L 87.56894683837891 151.9087066650391 C 87.56894683837891 151.9087066650391 76.99868011474609 82.87776184082031 35.21926879882812 80.49098205566406 C -2.037460327148438 78.02479553222656 -12.29364013671875 57.00434875488281 16.88308715820312 22.63516235351562 C 28.73748779296875 9.285110473632812 46.50103759765625 0.000762939453125 61.25387573242188 0 Z" stroke="none" fill="#cb5078"/>
        </g>
        <g id="Path_6" data-name="Path 6" transform="translate(167.958 112.305) rotate(47)" fill="#fff">
          <path d="M 61.2538948059082 222.15380859375 C 48.94754791259766 222.15380859375 33.00777816772461 213.8822326660156 22.49127960205078 202.0388031005859 C 10.47277927398682 187.8785705566406 5.293163776397705 175.4889221191406 8.390009880065918 168.1726531982422 C 11.11893272399902 161.7256164550781 20.8230094909668 157.6321868896484 35.71466445922852 156.6464233398438 C 82.94869995117188 153.9483489990234 94.51335906982422 81.94419097900391 94.98251342773438 78.88031005859375 L 95.22789764404297 77.27777099609375 L 94.78947448730469 75.71692657470703 L 80.70722961425781 25.5828685760498 L 190.8335418701172 135.7091522216797 L 149.0965118408203 125.7469253540039 L 147.2256622314453 125.3003845214844 L 145.370849609375 125.8092727661133 C 142.6947784423828 126.5435028076172 79.83481597900391 144.3938903808594 80.06900787353516 196.8465423583984 C 80.11132049560547 206.3200378417969 77.98293304443359 213.4878540039062 73.91400909423828 217.5749969482422 C 70.8892822265625 220.6132659912109 66.62977600097656 222.15380859375 61.2538948059082 222.15380859375 Z" stroke="none"/>
          <path d="M 61.25386047363281 214.6537780761719 C 66.23918151855469 214.6537780761719 68.01526641845703 212.8697814941406 68.59890747070312 212.2835083007812 C 71.19185638427734 209.678955078125 72.60181427001953 204.2085571289062 72.56908416748047 196.8800506591797 C 72.30949401855469 138.7467803955078 140.484130859375 119.3728713989258 143.3863983154297 118.5765991210938 L 147.0960845947266 117.5587768554688 L 150.8377685546875 118.4518737792969 L 166.7733459472656 122.2555389404297 L 95.68352508544922 51.16571807861328 L 102.0100402832031 73.68873596191406 L 102.8868560791016 76.81037139892578 L 102.3960876464844 80.01546478271484 C 101.889404296875 83.32460021972656 89.37372589111328 161.0935516357422 36.20999526977539 164.1300506591797 C 21.59040451049805 165.0977783203125 16.13749694824219 169.1098785400391 15.29676914215088 171.0961456298828 C 14.23422336578369 173.6063232421875 15.58835983276367 182.3156890869141 28.0993595123291 197.0589599609375 C 37.15231323242188 207.2541046142578 51.09576797485352 214.6537780761719 61.25386047363281 214.6537780761719 M 61.25387573242188 229.65380859375 C 46.50102996826172 229.65380859375 28.73748207092285 220.3686981201172 16.88308715820312 207.0186462402344 C -12.29364013671875 172.6494598388672 -2.037458419799805 151.6289672851562 35.21926879882812 149.1628265380859 C 76.99868011474609 146.7760467529297 87.56890869140625 77.74510192871094 87.56890869140625 77.74510192871094 L 65.73099517822266 7.856889169488568e-06 L 214.8938140869141 149.1628265380859 L 147.355224609375 133.0420074462891 C 147.355224609375 133.0420074462891 87.35768127441406 149.5031890869141 87.56894683837891 196.8130493164062 C 87.67440032958984 220.4304504394531 75.95996856689453 229.65380859375 61.25387573242188 229.65380859375 Z" stroke="none" fill="#cb5078"/>
        </g>
        <g id="Path_5" data-name="Path 5" transform="matrix(-0.996, 0.087, -0.087, -0.996, 466.425, 436.276)" fill="#fff">
          <path d="M 80.70722961425781 204.0709381103516 L 94.78947448730469 153.9368896484375 L 95.22789764404297 152.3760375976562 L 94.98251342773438 150.7734985351562 C 94.51335906982422 147.7096099853516 82.94869995117188 75.70545959472656 35.64704895019531 73.00318908691406 C 20.8230094909668 72.02161407470703 11.11893272399902 67.92819213867188 8.390009880065918 61.48115539550781 C 5.29320240020752 54.16492462158203 10.47277927398682 41.77523040771484 22.6007022857666 27.48896217346191 C 33.00777816772461 15.77161502838135 48.94754791259766 7.5 61.2538948059082 7.5 C 66.62977600097656 7.5 70.8892822265625 9.040538787841797 73.91400909423828 12.07880783081055 C 77.98293304443359 16.16596221923828 80.11132049560547 23.33373069763184 80.06900787353516 32.80727005004883 C 79.83481597900391 85.25996398925781 142.69482421875 103.1103057861328 145.370849609375 103.8445358276367 L 147.2256622314453 104.3534240722656 L 149.0965118408203 103.9068832397461 L 190.8335418701172 93.94465637207031 L 80.70722961425781 204.0709381103516 Z" stroke="none"/>
          <path d="M 61.25459289550781 15.00003051757812 C 51.09562683105469 15.00053405761719 37.15185546875 22.40020751953125 28.31826782226562 32.34271240234375 C 15.58836364746094 47.33811950683594 14.23422241210938 56.04743957519531 15.29672241210938 58.5576171875 C 16.13749694824219 60.54388427734375 21.59036254882812 64.55598449707031 36.07481384277344 65.51539611816406 C 89.37372589111328 68.56025695800781 101.8894500732422 146.3292083740234 102.3961334228516 149.6383056640625 L 102.8869018554688 152.8434448242188 L 102.0100402832031 155.9651184082031 L 95.68351745605469 178.4880676269531 L 166.7733306884766 107.3982696533203 L 150.8377685546875 111.2019348144531 L 147.0960845947266 112.0950317382812 L 143.3864135742188 111.0772094726562 C 140.484130859375 110.2809371948242 72.30949401855469 90.90702819824219 72.569091796875 32.7738037109375 C 72.601806640625 25.44488525390625 71.1917724609375 19.97430419921875 68.5986328125 17.36970520019531 C 68.01504516601562 16.7835693359375 66.2391357421875 14.999755859375 61.254638671875 15.00003051757812 L 61.25459289550781 15.00003051757812 M 61.25387573242188 0 C 75.95996856689453 -0.0007476806640625 87.67440032958984 9.223358154296875 87.56894683837891 32.84075927734375 C 87.35768127441406 80.15061950683594 147.355224609375 96.61180114746094 147.355224609375 96.61180114746094 L 214.8938140869141 80.49098205566406 L 65.73095703125 229.65380859375 L 87.56894683837891 151.9087066650391 C 87.56894683837891 151.9087066650391 76.99868011474609 82.87776184082031 35.21926879882812 80.49098205566406 C -2.037460327148438 78.02479553222656 -12.29364013671875 57.00434875488281 16.88308715820312 22.63516235351562 C 28.73748779296875 9.285110473632812 46.50103759765625 0.000762939453125 61.25387573242188 0 Z" stroke="none" fill="#cb5078"/>
        </g>
        <g id="Ellipse_1" data-name="Ellipse 1" transform="translate(107.65 115.635)" fill="#fff" stroke="#cb5078" stroke-width="15">
          <ellipse cx="149" cy="149.5" rx="149" ry="149.5" stroke="none"/>
          <ellipse cx="149" cy="149.5" rx="141.5" ry="142" fill="none"/>
        </g>
      </g>
      <g id="Group_6" data-name="Group 6" transform="translate(477.359 415.811)">
        <g id="Group_4" data-name="Group 4" transform="translate(0)">
          <path id="Path_9" data-name="Path 9" d="M0,0S12.072,24.071,32.806,36,82.935,47.732,82.935,47.732" fill="none" stroke="#cb5078" stroke-width="15"/>
        </g>
        <g id="Group_1" data-name="Group 1" transform="translate(0.597 20.286)">
          <path id="Path_10" data-name="Path 10" d="M8,13s7.3,16.315,28.032,28.248S83.775,52.976,83.775,52.976" transform="translate(-8 -13)" fill="none" stroke="#cb5078" stroke-width="4"/>
          <path id="Path_11" data-name="Path 11" d="M0,0S9.634,60.517,21.963,62.261,50.119,23.269,50.119,23.269" transform="translate(11.933 16.11)" fill="none" stroke="#cb5078" stroke-width="4"/>
          <g id="Ellipse_2" data-name="Ellipse 2" transform="translate(37.045 39.903)" fill="#cb5078" stroke="#cb5078" stroke-width="1">
            <circle cx="7.5" cy="7.5" r="7.5" stroke="none"/>
            <circle cx="7.5" cy="7.5" r="7" fill="none"/>
          </g>
        </g>
      </g>
      <g id="Group_5" data-name="Group 5" transform="translate(588.932 414.617)">
        <path id="Path_8" data-name="Path 8" d="M82.935,0S68.58,20.019,47.846,31.952,0,47.732,0,47.732" fill="none" stroke="#cb5078" stroke-width="15"/>
        <g id="Group_2" data-name="Group 2" transform="translate(2.387 20.286)">
          <path id="Path_10-2" data-name="Path 10" d="M83.775,13s-7.3,16.315-28.032,28.248S8,52.976,8,52.976" transform="translate(-8 -13)" fill="none" stroke="#cb5078" stroke-width="4"/>
          <path id="Path_11-2" data-name="Path 11" d="M50.119,0S40.485,60.517,28.156,62.261,0,23.269,0,23.269" transform="translate(13.723 16.11)" fill="none" stroke="#cb5078" stroke-width="4"/>
          <g id="Ellipse_2-2" data-name="Ellipse 2" transform="translate(23.681 40.096)" fill="#cb5078" stroke="#cb5078" stroke-width="1">
            <ellipse cx="7.5" cy="7" rx="7.5" ry="7" stroke="none"/>
            <ellipse cx="7.5" cy="7" rx="7" ry="6.5" fill="none"/>
          </g>
        </g>
      </g>
      <path id="Path_12" data-name="Path 12" d="M0,52.505s2.614-14.053,33.192-27.18S122.314,0,122.314,0" transform="translate(523.897 541.704)" fill="none" stroke="#cb5078" stroke-width="8"/>
    </g>
    <path id="Path_19" data-name="Path 19" d="M80.736-79.68A8.658,8.658,0,0,1,85.2-77.664a4.535,4.535,0,0,1,1.488,3.36A5.59,5.59,0,0,1,84.912-69.7q-1.776,1.44-5.616,1.152-8.64-.672-13.488-.912t-12.72-.336q-3.552,17.664-6.528,35.52-1.056,6.528-2.208,15.12T42.816-5.28a5.4,5.4,0,0,1-2.3,4.272A8.607,8.607,0,0,1,35.424.48a7.127,7.127,0,0,1-4.9-1.536A5.136,5.136,0,0,1,28.8-5.088a65.213,65.213,0,0,1,.72-7.632q.72-5.328,1.68-11.184,1.056-5.856,1.632-10.176,1.056-7.3,2.4-14.5T37.92-62.208q.288-1.44.672-3.312t.864-4.176A79.323,79.323,0,0,0,24.672-68.16q-5.376,1.248-7.632,3.5a7.861,7.861,0,0,0-2.256,5.808,11.336,11.336,0,0,0,1.92,6.24,2.855,2.855,0,0,1,.384,1.44q0,1.824-2.16,3.408a7.461,7.461,0,0,1-4.464,1.584,3.843,3.843,0,0,1-2.688-.96,11.959,11.959,0,0,1-3.168-4.656A17.856,17.856,0,0,1,3.36-58.656q0-8.16,5.328-13.1t16.224-7.248q10.9-2.3,27.984-2.3,10.56,0,16.848.384A92.975,92.975,0,0,1,80.736-79.68ZM75.456.48q-3.648,0-5.136-3.84T68.832-15.648A78.18,78.18,0,0,1,72.384-39.36a7.222,7.222,0,0,1,2.832-4.08,9.988,9.988,0,0,1,5.52-1.3,5.409,5.409,0,0,1,2.688.48,1.982,1.982,0,0,1,.768,1.824,36.6,36.6,0,0,1-1.44,6.912q-.96,3.84-1.536,6.72a68.869,68.869,0,0,0-.96,7.1,54.584,54.584,0,0,1,7.1-13.44,27.856,27.856,0,0,1,7.728-7.392,14.053,14.053,0,0,1,6.96-2.208q6.24,0,6.24,6.24a48.235,48.235,0,0,1-.864,6.048,35.371,35.371,0,0,0-.768,4.8q0,3.36,2.4,3.36,2.688,0,6.912-4.224a3.674,3.674,0,0,1,2.592-1.248,2.237,2.237,0,0,1,1.968,1.1,5.289,5.289,0,0,1,.72,2.928,7.745,7.745,0,0,1-1.92,5.568,26.009,26.009,0,0,1-6.288,4.752,15.677,15.677,0,0,1-7.632,1.968q-5.088,0-7.728-2.592a9.373,9.373,0,0,1-2.64-7.008,14.652,14.652,0,0,1,.288-2.88q.192-1.92.192-2.592,0-1.536-1.056-1.536-1.44,0-3.792,3.216a45.131,45.131,0,0,0-4.656,8.5A68.957,68.957,0,0,0,82.272-7.2q-1.056,4.512-2.448,6.1A5.523,5.523,0,0,1,75.456.48ZM124.9-51.072q-4.032,0-6.048-1.872a6.787,6.787,0,0,1-2.016-5.232,7.092,7.092,0,0,1,2.64-5.616,9.769,9.769,0,0,1,6.576-2.256,9.077,9.077,0,0,1,5.76,1.728,5.856,5.856,0,0,1,2.208,4.9,7.809,7.809,0,0,1-2.5,6.1A9.5,9.5,0,0,1,124.9-51.072ZM124.128.48q-6.24,0-9.072-4.416t-2.832-11.712a71.686,71.686,0,0,1,1.1-11.088A103.53,103.53,0,0,1,116.16-39.36a8.134,8.134,0,0,1,2.3-4.224,7.382,7.382,0,0,1,4.608-1.152q4.9,0,4.9,3.264,0,2.4-1.824,11.136-2.3,10.56-2.3,14.3a10.126,10.126,0,0,0,.768,4.416A2.672,2.672,0,0,0,127.2-10.08q1.728,0,4.32-2.4a85.92,85.92,0,0,0,6.912-7.584,3.37,3.37,0,0,1,2.592-1.344,2.218,2.218,0,0,1,1.968,1.152,5.955,5.955,0,0,1,.72,3.168,8.827,8.827,0,0,1-1.824,5.952Q132.384.48,124.128.48Zm60.288-29.664a3.368,3.368,0,0,1,.96-.1,2.662,2.662,0,0,1,2.208.96,4.034,4.034,0,0,1,.768,2.592,8.145,8.145,0,0,1-1.152,4.656,6.522,6.522,0,0,1-3.456,2.448,30.162,30.162,0,0,1-9.408,1.44,26.951,26.951,0,0,1-7.968-1.152q-2.784,4.512-6.144,9.312-3.84,5.472-6.624,7.488A10.531,10.531,0,0,1,147.264.48a7.265,7.265,0,0,1-6.192-3.072q-2.256-3.072-2.832-9.7-1.152-13.44-1.152-23.52v-3.36q.1-3.168,1.728-4.416a8,8,0,0,1,4.9-1.248,5.316,5.316,0,0,1,3.7,1.1,4.838,4.838,0,0,1,1.2,3.7q0,11.04,1.344,28.7,5.76-8.544,8.64-13.632a14.247,14.247,0,0,1-1.44-6.624,14.77,14.77,0,0,1,1.44-6.336,13.287,13.287,0,0,1,3.936-4.992,9.046,9.046,0,0,1,5.664-1.92,5.719,5.719,0,0,1,4.512,1.968,8.406,8.406,0,0,1,1.728,5.712,26.343,26.343,0,0,1-2.3,9.888,68.363,68.363,0,0,0,9.7-1.44Zm8.16-21.888q-4.032,0-6.048-1.872a6.787,6.787,0,0,1-2.016-5.232,7.092,7.092,0,0,1,2.64-5.616,9.769,9.769,0,0,1,6.576-2.256,9.077,9.077,0,0,1,5.76,1.728,5.856,5.856,0,0,1,2.208,4.9,7.809,7.809,0,0,1-2.5,6.1A9.5,9.5,0,0,1,192.576-51.072ZM191.808.48q-6.24,0-9.072-4.416T179.9-15.648a71.685,71.685,0,0,1,1.1-11.088A103.533,103.533,0,0,1,183.84-39.36a8.134,8.134,0,0,1,2.3-4.224,7.382,7.382,0,0,1,4.608-1.152q4.9,0,4.9,3.264,0,2.4-1.824,11.136-2.3,10.56-2.3,14.3a10.126,10.126,0,0,0,.768,4.416,2.672,2.672,0,0,0,2.592,1.536q1.728,0,4.32-2.4a85.925,85.925,0,0,0,6.912-7.584,3.37,3.37,0,0,1,2.592-1.344,2.218,2.218,0,0,1,1.968,1.152,5.955,5.955,0,0,1,.72,3.168,8.827,8.827,0,0,1-1.824,5.952Q200.064.48,191.808.48Zm22.848,0a10.783,10.783,0,0,1-8.88-4.32q-3.408-4.32-3.408-11.328a31.209,31.209,0,0,1,3.552-14.544,30.32,30.32,0,0,1,9.456-11.04A21.325,21.325,0,0,1,227.9-44.928a3.738,3.738,0,0,1,2.832.816,6.9,6.9,0,0,1,1.2,2.928,19.607,19.607,0,0,1,4.032-.384,5.048,5.048,0,0,1,3.552,1.152,4.221,4.221,0,0,1,1.248,3.264,52.186,52.186,0,0,1-.96,7.68q-1.056,5.856-1.632,11.184A112.03,112.03,0,0,0,237.6-6.336q0,3.648-1.488,5.232T231.264.48A6.6,6.6,0,0,1,226.416-1.1q-1.584-1.584-1.584-5.136l.1-1.536Q221.952.48,214.656.48Zm3.744-9.7q2.688,0,4.9-3.744T227.232-26.3l1.824-9.7a11.336,11.336,0,0,0-7.3,3.024,20.636,20.636,0,0,0-5.376,7.728,26.011,26.011,0,0,0-2.016,10.176,7.269,7.269,0,0,0,1.1,4.368A3.47,3.47,0,0,0,218.4-9.216Z" transform="translate(1040.711 746.507) rotate(-25)" fill="#345d7e"/>
    <path id="Path_18" data-name="Path 18" d="M43.488.48A44.355,44.355,0,0,1,23.616-3.7a30.076,30.076,0,0,1-12.96-11.856A34.6,34.6,0,0,1,6.144-33.408a56.541,56.541,0,0,1,5.328-25.056A41.416,41.416,0,0,1,25.92-75.408a36.068,36.068,0,0,1,20.256-6q10.368,0,15.744,5.328T67.3-62.016a18.638,18.638,0,0,1-2.064,9.408,6.488,6.488,0,0,1-5.9,3.552A6.515,6.515,0,0,1,55.1-50.3a4.425,4.425,0,0,1-1.536-3.648,23.208,23.208,0,0,1,.384-3.168,24.779,24.779,0,0,0,.576-4.608q0-8.736-9.312-8.736a20.45,20.45,0,0,0-12.1,4.128,28.861,28.861,0,0,0-9.312,12.144,46.777,46.777,0,0,0-3.552,19.056q0,11.52,6.432,17.808T45.7-11.04A52.277,52.277,0,0,0,58.32-12.624a98.139,98.139,0,0,0,14.16-4.848,6.755,6.755,0,0,1,2.4-.576,2.584,2.584,0,0,1,2.3,1.152,5.268,5.268,0,0,1,.768,2.976q0,5.856-6.336,8.64A65.982,65.982,0,0,1,57.456-.912,75.088,75.088,0,0,1,43.488.48Zm74.976-29.952a2.1,2.1,0,0,1,1.92,1.248,6.64,6.64,0,0,1,.672,3.168q0,4.608-2.784,5.472a43.707,43.707,0,0,1-12.672,2.3A23.962,23.962,0,0,1,98.4-4.368,17.713,17.713,0,0,1,86.208.48,17.036,17.036,0,0,1,76.368-2.3,17.682,17.682,0,0,1,70.176-9.7a23.673,23.673,0,0,1-2.112-9.984,29.318,29.318,0,0,1,2.784-13.008,21.871,21.871,0,0,1,7.68-8.928,19.341,19.341,0,0,1,10.848-3.216,14.95,14.95,0,0,1,11.76,5.04,21.587,21.587,0,0,1,5.232,12.432,58.185,58.185,0,0,0,10.752-1.92A5.641,5.641,0,0,1,118.464-29.472ZM86.976-9.7a6.962,6.962,0,0,0,5.328-2.5,13.856,13.856,0,0,0,3.024-7.2,13.253,13.253,0,0,1-4.56-5.28,15.631,15.631,0,0,1-1.584-6.912,16.637,16.637,0,0,1,.288-3.072h-.48a7.537,7.537,0,0,0-6.384,3.7q-2.544,3.7-2.544,10.416,0,5.28,2.064,8.064A5.959,5.959,0,0,0,86.976-9.7Zm74.3-19.488a3.368,3.368,0,0,1,.96-.1,2.662,2.662,0,0,1,2.208.96,4.034,4.034,0,0,1,.768,2.592,8.145,8.145,0,0,1-1.152,4.656,6.522,6.522,0,0,1-3.456,2.448,30.162,30.162,0,0,1-9.408,1.44,26.951,26.951,0,0,1-7.968-1.152q-2.784,4.512-6.144,9.312-3.84,5.472-6.624,7.488A10.531,10.531,0,0,1,124.128.48a7.265,7.265,0,0,1-6.192-3.072q-2.256-3.072-2.832-9.7-1.152-13.44-1.152-23.52v-3.36q.1-3.168,1.728-4.416a8,8,0,0,1,4.9-1.248,5.316,5.316,0,0,1,3.7,1.1,4.838,4.838,0,0,1,1.2,3.7q0,11.04,1.344,28.7,5.76-8.544,8.64-13.632a14.248,14.248,0,0,1-1.44-6.624,14.77,14.77,0,0,1,1.44-6.336,13.287,13.287,0,0,1,3.936-4.992,9.046,9.046,0,0,1,5.664-1.92,5.719,5.719,0,0,1,4.512,1.968,8.406,8.406,0,0,1,1.728,5.712,26.343,26.343,0,0,1-2.3,9.888,68.363,68.363,0,0,0,9.7-1.44Zm8.16-21.888q-4.032,0-6.048-1.872a6.787,6.787,0,0,1-2.016-5.232,7.092,7.092,0,0,1,2.64-5.616,9.769,9.769,0,0,1,6.576-2.256,9.077,9.077,0,0,1,5.76,1.728,5.856,5.856,0,0,1,2.208,4.9,7.809,7.809,0,0,1-2.5,6.1A9.5,9.5,0,0,1,169.44-51.072ZM168.672.48q-6.24,0-9.072-4.416t-2.832-11.712a71.685,71.685,0,0,1,1.1-11.088A103.533,103.533,0,0,1,160.7-39.36a8.134,8.134,0,0,1,2.3-4.224,7.382,7.382,0,0,1,4.608-1.152q4.9,0,4.9,3.264,0,2.4-1.824,11.136-2.3,10.56-2.3,14.3a10.126,10.126,0,0,0,.768,4.416,2.672,2.672,0,0,0,2.592,1.536q1.728,0,4.32-2.4a85.92,85.92,0,0,0,6.912-7.584,3.37,3.37,0,0,1,2.592-1.344,2.218,2.218,0,0,1,1.968,1.152,5.955,5.955,0,0,1,.72,3.168,8.827,8.827,0,0,1-1.824,5.952Q176.928.48,168.672.48Zm46.752-21.888A128.465,128.465,0,0,0,218.5-5.856a8.764,8.764,0,0,1,.384,2.592q0,4.32-5.28,4.32a6.065,6.065,0,0,1-4.56-1.632q-1.584-1.632-2.928-6.144l-.1-.384q-3.648,4.512-6.576,6.048A14.359,14.359,0,0,1,192.672.48a12.214,12.214,0,0,1-9.648-4.368q-3.792-4.368-3.792-11.376A31.323,31.323,0,0,1,182.5-29.472a29.418,29.418,0,0,1,8.928-10.7,26.464,26.464,0,0,1,12.672-5.04q1.824-18.144,6.96-31.584t13.68-13.44A8.217,8.217,0,0,1,231.6-86.5q2.736,3.744,2.736,11.328,0,10.56-5.184,24.672A193.857,193.857,0,0,1,215.424-21.408Zm8.256-59.424q-2.784,0-5.232,14.208a262.382,262.382,0,0,0-3.312,30.912q10.656-23.04,10.656-37.44a20.046,20.046,0,0,0-.624-5.664Q224.544-80.832,223.68-80.832ZM196.032-9.216a5.8,5.8,0,0,0,3.7-1.44,27.174,27.174,0,0,0,4.56-5.568,106.737,106.737,0,0,1-.96-14.5q0-2.976.1-4.608a15.388,15.388,0,0,0-8.736,7.008,22.2,22.2,0,0,0-3.456,12.1Q191.232-9.216,196.032-9.216Z" transform="matrix(0.995, -0.105, 0.105, 0.995, 884.348, 163.103)" fill="#345d7e"/>
  </g>
</svg>
